<svg xmlns="http://www.w3.org/2000/svg" data-name="Layer 1" viewBox="0 0 100 125" x="0px" y="0px"><defs><style>.cls-1{fill-rule:evenodd;}</style></defs><title>a</title><path class="cls-1" d="M55.448,43.873A1.228,1.228,0,0,1,54,41.893l4.186-3.075L54,35.743a1.228,1.228,0,0,1,1.452-1.98l5.512,4.049a1.244,1.244,0,0,1,.286.28,1.228,1.228,0,0,1-.264,1.716l-5.534,4.065Zm-8.474,2.182a1.227,1.227,0,0,1-2.259-.961L50.5,31.581a1.227,1.227,0,0,1,2.259.961l-5.78,13.513Zm21.991,9.2V52.9H55.183L53.9,54.61a1.229,1.229,0,0,1-1.047.584H44.617v-.005a1.221,1.221,0,0,1-.98-.49l-1.351-1.8H28.5v2.361a1.459,1.459,0,0,0,.641,1.109,3.211,3.211,0,0,0,1.949.6H66.375a3.209,3.209,0,0,0,1.949-.6,1.459,1.459,0,0,0,.641-1.109ZM50.541,77.03a1.231,1.231,0,1,1-2.461,0V74.123a4.552,4.552,0,0,1-3.144-3.144H12.3V77.03a1.231,1.231,0,1,1-2.461,0V69.748a1.231,1.231,0,0,1,1.231-1.23H44.936a4.552,4.552,0,0,1,3.144-3.144V62.658a1.231,1.231,0,1,1,2.461,0v2.716a4.552,4.552,0,0,1,3.144,3.144H88.933a1.231,1.231,0,0,1,1.231,1.23V77.03a1.231,1.231,0,1,1-2.461,0V70.979H53.685a4.552,4.552,0,0,1-3.144,3.144V77.03ZM83.32,81.312H94.547a1.231,1.231,0,0,1,1.23,1.231V93.769A1.231,1.231,0,0,1,94.547,95H83.32a1.231,1.231,0,0,1-1.231-1.231V82.543a1.231,1.231,0,0,1,1.231-1.231Zm-39.623,0H54.924a1.231,1.231,0,0,1,1.23,1.231V93.769A1.231,1.231,0,0,1,54.924,95H43.7a1.231,1.231,0,0,1-1.231-1.231V82.543A1.231,1.231,0,0,1,43.7,81.312Zm-38.244,0H16.68a1.231,1.231,0,0,1,1.231,1.231V93.769A1.231,1.231,0,0,1,16.68,95H5.453a1.231,1.231,0,0,1-1.23-1.231V82.543a1.231,1.231,0,0,1,1.23-1.231ZM69.684,42.745h2.441a10.5,10.5,0,0,0,0-21.006h-3.2v0a1.226,1.226,0,0,1-1.221-1.111A7.558,7.558,0,0,0,60.179,13.8a7.649,7.649,0,0,0-1.3.11,7.545,7.545,0,0,0-1.178.3,1.228,1.228,0,0,1-1.607-.623,14.586,14.586,0,0,0-27.882,6c0,.241,0,.381,0,.431,0,.087.008.2.016.339a1.333,1.333,0,0,1,.01.156,1.231,1.231,0,0,1-1.231,1.23A11.348,11.348,0,0,0,19.1,24.778a10.169,10.169,0,0,0-3.109,7.464,10.536,10.536,0,0,0,10.5,10.5h1.36l-.042-15.288h0A3.764,3.764,0,0,1,31.566,23.7H65.9a3.766,3.766,0,0,1,3.756,3.756h0l.029,15.288ZM30.311,43.863c0,.037,0,.074,0,.112s0,.071,0,.106l.018,6.354H42.9a1.229,1.229,0,0,1,1.047.584l1.284,1.714h7.015l1.351-1.8a1.221,1.221,0,0,1,.98-.49v0H67.247l-.012-6.349c0-.036,0-.073,0-.111s0-.071,0-.106L67.2,27.457h0a1.3,1.3,0,0,0-1.3-1.3H31.566a1.3,1.3,0,0,0-1.295,1.3h-.005l.045,16.406Zm13.162-1.97a1.227,1.227,0,0,1-1.451,1.98l-5.535-4.065a1.228,1.228,0,0,1-.264-1.716,1.244,1.244,0,0,1,.286-.28l5.512-4.049a1.228,1.228,0,0,1,1.452,1.98l-4.186,3.075Z"/><text x="0" y="115" fill="#000000" font-size="5px" font-weight="bold" font-family="'Helvetica Neue', Helvetica, Arial-Unicode, Arial, Sans-serif">Created by Good Wife</text><text x="0" y="120" fill="#000000" font-size="5px" font-weight="bold" font-family="'Helvetica Neue', Helvetica, Arial-Unicode, Arial, Sans-serif">from the Noun Project</text></svg>